<svg xmlns="http://www.w3.org/2000/svg" viewBox="0 0 45 45" height="64" width="64" class="w-11 h-11 mb-md" aria-hidden="true"><path fill="currentColor" fill-rule="evenodd" d="M32.002 11a2 2 0 1 1 4.001.001A2 2 0 0 1 32.002 11Zm7.999 10.077L27.598 33.479 11.521 17.402 23.923 5h16.078v16.077ZM21.278 39.8 5.201 23.723l4.199-4.2L25.477 35.6l-4.199 4.2ZM40.489 2H23.721a2.5 2.5 0 0 0-1.776.735L2.734 21.947a2.515 2.515 0 0 0 0 3.551l16.769 16.77a2.5 2.5 0 0 0 1.775.732c.643 0 1.286-.244 1.776-.733l19.211-19.212a2.496 2.496 0 0 0 .736-1.776V4.511A2.514 2.514 0 0 0 40.489 2Z" clip-rule="evenodd"></path></svg>